<?xml version="1.0" encoding="utf-8"?>
<!-- Generator: Adobe Illustrator 19.2.1, SVG Export Plug-In . SVG Version: 6.00 Build 0)  -->
<svg version="1.1" id="Layer_1" xmlns="http://www.w3.org/2000/svg" xmlns:xlink="http://www.w3.org/1999/xlink" x="0px" y="0px"
	 viewBox="0 0 1000 1000" style="enable-background:new 0 0 1000 1000;" xml:space="preserve">
<style type="text/css">
	.st0{fill:#D8D7D6;}
</style>
<path class="st0" d="M499,147.4c-220.9,0-400,179.1-400,400v200h800v-200C899,326.5,719.9,147.4,499,147.4z M499,729.9
	c-45.5,0-82.5-37-82.5-82.5s37-82.5,82.5-82.5s82.5,37,82.5,82.5S544.5,729.9,499,729.9z M681.3,299l-96,293.4
	c-22.8-26.3-56.2-43.3-93.8-43.3c-5.6,0-11.1,1-16.6,1.6l147.4-276.6c16.1-30.3,40.3-50.4,53.8-44.7
	C689.7,235,691.9,266.5,681.3,299z"/>
<rect x="99" y="757.4" class="st0" width="800" height="93.2"/>
</svg>
