<?xml version="1.0" encoding="utf-8"?>
<!-- Generator: Adobe Illustrator 21.0.0, SVG Export Plug-In . SVG Version: 6.00 Build 0)  -->
<svg version="1.1" id="Layer_2" xmlns="http://www.w3.org/2000/svg" xmlns:xlink="http://www.w3.org/1999/xlink" x="0px" y="0px"
	 viewBox="0 0 16 16" enable-background="new 0 0 16 16" xml:space="preserve">
	 <style type="text/css">
	.st0{fill:#808499;}
</style>
<g>
	<path class="st0" d="M6.5,6.5c-1.7,0-3,1.3-3,3s1.3,3,3,3s3-1.3,3-3S8.2,6.5,6.5,6.5z M7,9.5H6v-2h1V9.5z"/>
	<path class="st0" d="M13,3.9l-0.7-0.7L10.9,4.6C10,3.8,8.8,3.2,7.6,3V2h1V0h-4v2h1v1.1C4.2,3.3,3.1,3.8,2.2,4.7L0.7,3.2L0,3.9l1.5,1.5
		C0.5,6.5,0,7.9,0,9.5C0,13.1,2.9,16,6.5,16c3.6,0,6.5-2.9,6.5-6.5c0-1.6-0.5-3-1.5-4.1L13,3.9z M6.5,15C3.5,15,1,12.5,1,9.5
		S3.5,4,6.5,4S12,6.5,12,9.5S9.5,15,6.5,15z"/>
</g>
</svg>
